<svg width="148" height="116" xmlns="http://www.w3.org/2000/svg" xmlns:xlink="http://www.w3.org/1999/xlink" xml:space="preserve" overflow="hidden"><defs><clipPath id="clip0"><rect x="336" y="4" width="148" height="116"/></clipPath><clipPath id="clip1"><rect x="337" y="4" width="147" height="116"/></clipPath><clipPath id="clip2"><rect x="337" y="4" width="147" height="116"/></clipPath><clipPath id="clip3"><rect x="337" y="4" width="147" height="116"/></clipPath><clipPath id="clip4"><rect x="381" y="3" width="59" height="62"/></clipPath><clipPath id="clip5"><rect x="384" y="112" width="53" height="9"/></clipPath><clipPath id="clip6"><rect x="337" y="80" width="147" height="27"/></clipPath></defs><g clip-path="url(#clip0)" transform="translate(-336 -4)"><g clip-path="url(#clip1)"><g clip-path="url(#clip2)"><g clip-path="url(#clip3)"><g clip-path="url(#clip4)"><path d="M60.6476 42.4399C59.2639 42.4399 58.138 43.5651 58.138 44.9495 58.138 46.3333 59.2639 47.4592 60.6476 47.4592 62.0314 47.4592 63.1572 46.3333 63.1572 44.9495 63.1572 43.5658 62.0314 42.4399 60.6476 42.4399ZM60.6476 46.2778C59.9158 46.2778 59.3187 45.682 59.3187 44.9495 59.3187 44.2164 59.9158 43.6206 60.6476 43.6206 61.3795 43.6206 61.9766 44.2164 61.9766 44.9495 61.9766 45.6827 61.3795 46.2778 60.6476 46.2778Z" fill="#F6D8CC" fill-rule="nonzero" fill-opacity="1" transform="matrix(1.00314 0 0 1 376.545 0.238633)"/><path d="M34.9599 26.666C37.089 26.666 38.8214 24.9343 38.8214 22.8051 38.8214 20.676 37.0883 18.9436 34.9599 18.9436 32.8321 18.9436 31.0996 20.676 31.0996 22.8051 31.0996 24.9343 32.8321 26.666 34.9599 26.666ZM34.9599 20.7613C36.087 20.7613 37.0044 21.678 37.0044 22.8058 37.0044 23.933 36.0877 24.849 34.9599 24.849 33.8333 24.849 32.9167 23.9323 32.9167 22.8058 32.9167 21.678 33.8333 20.7613 34.9599 20.7613Z" fill="#F6D8CC" fill-rule="nonzero" fill-opacity="1" transform="matrix(1.00314 0 0 1 376.545 0.238633)"/><path d="M25.2166 14.686C28.2285 14.686 30.6792 12.2359 30.6792 9.22401 30.6792 6.21208 28.2285 3.76137 25.2166 3.76137 22.2047 3.76137 19.7539 6.21208 19.7539 9.22401 19.7539 12.2359 22.2047 14.686 25.2166 14.686Z" fill="#F6D8CC" fill-rule="nonzero" fill-opacity="1" transform="matrix(1.00314 0 0 1 376.545 0.238633)"/><path d="M8.7007 22.6318C6.40705 22.6318 4.54126 24.4976 4.54126 26.792 4.54126 29.0849 6.40705 30.95 8.7007 30.95 10.9937 30.95 12.8595 29.0849 12.8595 26.792 12.8595 24.4976 10.9937 22.6318 8.7007 22.6318Z" fill="#F6D8CC" fill-rule="nonzero" fill-opacity="1" transform="matrix(1.00314 0 0 1 376.545 0.238633)"/><path d="M36.3497 33.6038C35.691 30.9724 34.1725 30.0381 33.071 30.0381 32.3473 30.0381 31.7529 30.4213 31.5214 31.038 31.4544 31.2147 31.3955 31.4002 31.3352 31.5851 31.2026 31.9967 31.0028 32.6188 30.8058 32.6188 30.7266 32.6188 30.4843 32.5741 29.9779 32.1503 28.651 31.0462 28.3192 29.6421 27.5935 26.5658 27.4344 25.8909 27.2577 25.1421 27.0485 24.3047 26.1292 20.6266 23.1443 17.8536 20.108 17.8536 18.6768 17.8536 17.3039 18.4697 16.1395 19.6348 14.6968 21.0768 14.206 22.9399 14.7571 24.8801 15.5877 27.7986 18.6322 30.4924 21.9975 31.2838 26.3005 32.2966 27.148 33.8232 28.5515 36.3531 28.7085 36.6361 28.8723 36.9306 29.0477 37.2366 30.0645 39.0171 30.1918 40.9093 29.7274 41.7101 29.5365 42.0378 29.3029 42.0757 29.1431 42.0757 28.8751 42.0757 28.5311 41.9484 28.1493 41.7074 26.8698 40.8991 26.6701 39.9689 26.4182 38.7916 26.1718 37.638 25.8916 36.3308 24.5491 34.9883 23.1572 33.5957 21.6685 32.8598 20.2441 32.8598 19.1433 32.8598 18.1319 33.2897 17.3195 34.1021 16.0088 35.4134 14.2981 38.206 17.5808 42.1806 18.6653 43.4927 20.1507 43.8637 21.5866 44.2238 24.1097 44.8541 26.4927 45.4492 26.7642 51.3227 27.1812 60.3843 19.3491 62.8079 19.0153 62.9061 18.7845 62.9751 18.6315 63.1924 18.6437 63.4321 18.6572 63.6718 18.8326 63.8715 19.0688 63.9148 19.1528 63.9304 19.2476 63.9385 19.3532 63.9385 21.7077 63.9385 29.284 59.664 33.4603 53.8148 37.9068 47.5939 37.3273 37.5114 36.3497 33.6038Z" fill="#F6D8CC" fill-rule="nonzero" fill-opacity="1" transform="matrix(1.00314 0 0 1 376.545 0.238633)"/><path d="M53.1303 37.4458C52.3024 37.4458 51.3654 37.5656 50.3445 37.8005 42.5144 39.6067 36.7986 51.3133 36.5589 51.8102 36.4486 52.041 36.5217 52.3172 36.7329 52.4621 36.8223 52.5244 36.9245 52.5542 37.0274 52.5542 37.1655 52.5542 37.3022 52.4994 37.4038 52.3931 40.6554 48.9607 44.7938 46.6969 49.7034 45.6631L49.983 45.6028C50.3208 45.5284 50.9091 45.5182 51.5333 45.506 53.2298 45.4756 55.5533 45.4336 56.7509 44.1175 57.5897 43.1948 58.073 41.2417 57.3886 39.6968 56.9337 38.6698 55.8268 37.4458 53.1303 37.4458Z" fill="#F6D8CC" fill-rule="nonzero" fill-opacity="1" transform="matrix(1.00314 0 0 1 376.545 0.238633)"/><path d="M21.0998 53.2725C21.2386 53.5731 21.5392 53.7572 21.8587 53.7572 21.9284 53.7572 21.9988 53.7491 22.0693 53.7308 22.4606 53.6293 22.7226 53.2617 22.6921 52.8582 22.667 52.5373 22.0259 45.0037 16.5037 44.8324L16.3094 44.8297C14.7929 44.8297 13.619 45.4383 13.1675 46.4592 12.8574 47.162 12.9624 47.9527 13.4349 48.4719 14.0875 49.1902 15.2506 49.5213 16.4103 49.7718L16.5382 49.7995C16.5877 49.811 16.6513 49.8225 16.7298 49.8374 17.482 49.9755 19.7729 50.3987 21.0998 53.2725ZM16.7623 48.1375C16.3392 48.0461 15.0536 47.7685 14.6731 47.3495 14.6596 47.3292 14.6433 47.231 14.7144 47.099 14.8694 46.8099 15.3691 46.4999 16.3101 46.4999L16.4523 46.5026C18.3336 46.5608 19.4547 47.9683 20.1155 49.457 19.2367 48.8321 18.2084 48.4097 17.0338 48.193L16.7623 48.1375Z" fill="#F6D8CC" fill-rule="nonzero" fill-opacity="1" transform="matrix(1.00314 0 0 1 376.545 0.238633)"/></g><g clip-path="url(#clip5)"><path d="M6.41604-5.75798 6.91781-5.75798 6.91781 0 6.33378 0 6.33378-4.60639 4.07172-0.732086 3.78382-0.732086 1.52175-4.58171 1.52175 0 0.937729 0 0.937729-5.75798 1.4395-5.75798 3.94011-1.48885 6.41604-5.75798ZM12.8568-2.16336 12.8485-1.98239 9.22922-1.98239C9.26213-1.53272 9.43487-1.16942 9.74744-0.892487 10.06-0.615556 10.4549-0.47709 10.9319-0.47709 11.2006-0.47709 11.4474-0.525073 11.6723-0.62104 11.8971-0.717006 12.0918-0.858214 12.2563-1.04466L12.5853-0.666281C12.3934-0.435962 12.1535-0.26048 11.8656-0.139837 11.5777-0.0191933 11.261 0.0411285 10.9155 0.0411285 10.4713 0.0411285 10.0778-0.053467 9.7351-0.242658 9.39237-0.431849 9.12503-0.6937 8.9331-1.02821 8.74117-1.36272 8.6452-1.7411 8.6452-2.16336 8.6452-2.58561 8.73705-2.96399 8.92076-3.2985 9.10447-3.63301 9.35672-3.89349 9.67752-4.07994 9.99833-4.26639 10.3589-4.35962 10.7592-4.35962 11.1595-4.35962 11.5187-4.26639 11.8368-4.07994 12.1548-3.89349 12.4043-3.63438 12.5853-3.30261 12.7663-2.97084 12.8568-2.59109 12.8568-2.16336ZM10.7592-3.85785C10.3424-3.85785 9.99284-3.72487 9.71043-3.4589 9.42801-3.19294 9.26761-2.84609 9.22922-2.41835L12.2974-2.41835C12.259-2.84609 12.0986-3.19294 11.8162-3.4589 11.5338-3.72487 11.1815-3.85785 10.7592-3.85785ZM17.8251-6.10346 18.4091-6.10346 18.4091 0 17.8497 0 17.8497-0.855472C17.6743-0.564831 17.4426-0.342737 17.1547-0.189191 16.8668-0.0356447 16.5419 0.0411285 16.1799 0.0411285 15.7741 0.0411285 15.4067-0.052096 15.0777-0.238545 14.7487-0.424994 14.4909-0.685474 14.3045-1.01999 14.118-1.3545 14.0248-1.73562 14.0248-2.16336 14.0248-2.59109 14.118-2.97222 14.3045-3.30673 14.4909-3.64124 14.7487-3.90035 15.0777-4.08406 15.4067-4.26776 15.7741-4.35962 16.1799-4.35962 16.5309-4.35962 16.8476-4.28696 17.13-4.14163 17.4124-3.99631 17.6441-3.78382 17.8251-3.50414L17.8251-6.10346ZM16.2293-0.47709C16.5309-0.47709 16.8037-0.547008 17.0477-0.686845 17.2918-0.826682 17.4837-1.02547 17.6235-1.28321 17.7634-1.54095 17.8333-1.83433 17.8333-2.16336 17.8333-2.49238 17.7634-2.78577 17.6235-3.04351 17.4837-3.30124 17.2918-3.50003 17.0477-3.63987 16.8037-3.7797 16.5309-3.84962 16.2293-3.84962 15.9222-3.84962 15.6466-3.7797 15.4026-3.63987 15.1586-3.50003 14.9666-3.30124 14.8268-3.04351 14.687-2.78577 14.6171-2.49238 14.6171-2.16336 14.6171-1.83433 14.687-1.54095 14.8268-1.28321 14.9666-1.02547 15.1586-0.826682 15.4026-0.686845 15.6466-0.547008 15.9222-0.47709 16.2293-0.47709ZM20.4491 0 20.4491-4.32671 21.0331-4.32671 21.0331 0 20.4491 0ZM20.7452-5.27267C20.6245-5.27267 20.5231-5.3138 20.4408-5.39605 20.3586-5.47831 20.3175-5.57702 20.3175-5.69218 20.3175-5.80185 20.3586-5.89782 20.4408-5.98008 20.5231-6.06233 20.6245-6.10346 20.7452-6.10346 20.8658-6.10346 20.9673-6.0637 21.0495-5.98419 21.1318-5.90467 21.1729-5.81008 21.1729-5.7004 21.1729-5.57976 21.1318-5.47831 21.0495-5.39605 20.9673-5.3138 20.8658-5.27267 20.7452-5.27267ZM24.8663 0.0411285C24.4385 0.0411285 24.056-0.052096 23.7188-0.238545 23.3815-0.424994 23.1169-0.686845 22.925-1.0241 22.7331-1.36135 22.6371-1.7411 22.6371-2.16336 22.6371-2.58561 22.7331-2.96399 22.925-3.2985 23.1169-3.63301 23.3815-3.89349 23.7188-4.07994 24.056-4.26639 24.4385-4.35962 24.8663-4.35962 25.2392-4.35962 25.5723-4.28696 25.8657-4.14163 26.1591-3.99631 26.3908-3.78382 26.5608-3.50414L26.1248-3.20802C25.9822-3.42189 25.8012-3.58229 25.5819-3.68922 25.3625-3.79616 25.124-3.84962 24.8663-3.84962 24.5537-3.84962 24.2726-3.7797 24.0231-3.63987 23.7736-3.50003 23.5789-3.30124 23.4391-3.04351 23.2993-2.78577 23.2293-2.49238 23.2293-2.16336 23.2293-1.82885 23.2993-1.53409 23.4391-1.27909 23.5789-1.0241 23.7736-0.826682 24.0231-0.686845 24.2726-0.547008 24.5537-0.47709 24.8663-0.47709 25.124-0.47709 25.3625-0.529186 25.5819-0.633378 25.8012-0.73757 25.9822-0.8966 26.1248-1.11047L26.5608-0.814343C26.3908-0.53467 26.1577-0.322173 25.8616-0.176852 25.5654-0.0315318 25.2337 0.0411285 24.8663 0.0411285ZM29.6289-4.35962C30.1938-4.35962 30.627-4.21841 30.9286-3.93599 31.2302-3.65358 31.381-3.23544 31.381-2.68158L31.381 0 30.8217 0 30.8217-0.674507C30.6901-0.449671 30.4967-0.27419 30.2417-0.148062 29.9868-0.0219352 29.6838 0.0411285 29.3328 0.0411285 28.8502 0.0411285 28.4664-0.0740312 28.1812-0.304351 27.8961-0.53467 27.7535-0.83902 27.7535-1.2174 27.7535-1.58482 27.8865-1.88094 28.1524-2.10578 28.4184-2.33061 28.842-2.44303 29.4233-2.44303L30.797-2.44303 30.797-2.70625C30.797-3.07915 30.6928-3.36294 30.4844-3.55761 30.276-3.75229 29.9717-3.84962 29.5714-3.84962 29.2972-3.84962 29.0339-3.80438 28.7817-3.7139 28.5294-3.62342 28.3128-3.49866 28.1319-3.33963L27.8686-3.77559C28.088-3.96204 28.3512-4.10599 28.6583-4.20744 28.9654-4.30889 29.2889-4.35962 29.6289-4.35962ZM29.4233-0.41951C29.7523-0.41951 30.0347-0.494912 30.2705-0.645717 30.5063-0.796521 30.6818-1.0145 30.797-1.29966L30.797-2.00707 29.4397-2.00707C28.6994-2.00707 28.3293-1.74933 28.3293-1.23385 28.3293-0.981599 28.4252-0.782812 28.6172-0.637491 28.8091-0.49217 29.0778-0.41951 29.4233-0.41951ZM33.3799 0 33.3799-6.10346 33.9639-6.10346 33.9639 0 33.3799 0ZM40.2812 0.0493541C39.8535 0.0493541 39.4436-0.0191933 39.0515-0.156288 38.6594-0.293383 38.3564-0.474348 38.1425-0.699184L38.3811-1.16805C38.5895-0.959664 38.8664-0.791037 39.2119-0.662168 39.5573-0.533299 39.9138-0.468864 40.2812-0.468864 40.7967-0.468864 41.1833-0.56346 41.441-0.752651 41.6988-0.941841 41.8276-1.18724 41.8276-1.48885 41.8276-1.71917 41.7577-1.90288 41.6179-2.03997 41.478-2.17707 41.3067-2.28263 41.1038-2.35666 40.9009-2.43069 40.6185-2.51158 40.2565-2.59932 39.8233-2.70899 39.4778-2.81456 39.2201-2.91601 38.9623-3.01746 38.7416-3.17237 38.5579-3.38076 38.3742-3.58914 38.2824-3.87156 38.2824-4.228 38.2824-4.51865 38.3591-4.78324 38.5127-5.02178 38.6662-5.26033 38.902-5.45089 39.2201-5.59347 39.5382-5.73605 39.933-5.80734 40.4046-5.80734 40.7336-5.80734 41.0558-5.7621 41.3711-5.67161 41.6864-5.58113 41.9592-5.45637 42.1896-5.29734L41.9839-4.81203C41.7426-4.97106 41.4849-5.09033 41.2107-5.16985 40.9365-5.24936 40.6678-5.28912 40.4046-5.28912 39.9001-5.28912 39.5203-5.19178 39.2653-4.99711 39.0103-4.80243 38.8828-4.55155 38.8828-4.24446 38.8828-4.01414 38.9528-3.82906 39.0926-3.68922 39.2324-3.54939 39.4079-3.44245 39.619-3.36842 39.8302-3.29439 40.1139-3.2135 40.4704-3.12576 40.8926-3.02157 41.234-2.91875 41.4945-2.8173 41.755-2.71585 41.9757-2.5623 42.1567-2.35666 42.3376-2.15102 42.4281-1.87272 42.4281-1.52175 42.4281-1.23111 42.35-0.966519 42.1937-0.727974 42.0374-0.489429 41.7975-0.300238 41.4739-0.160401 41.1504-0.0205642 40.7528 0.0493541 40.2812 0.0493541ZM46.2695-4.35962C46.6753-4.35962 47.0427-4.26776 47.3717-4.08406 47.7008-3.90035 47.9585-3.64124 48.145-3.30673 48.3314-2.97222 48.4246-2.59109 48.4246-2.16336 48.4246-1.73014 48.3314-1.34627 48.145-1.01176 47.9585-0.677248 47.7021-0.418139 47.3759-0.234432 47.0496-0.0507251 46.6808 0.0411285 46.2695 0.0411285 45.9185 0.0411285 45.6019-0.0315318 45.3194-0.176852 45.037-0.322173 44.8053-0.53467 44.6244-0.814343L44.6244 1.59578 44.0403 1.59578 44.0403-4.32671 44.5997-4.32671 44.5997-3.47124C44.7752-3.7564 45.0069-3.97575 45.2948-4.1293 45.5827-4.28284 45.9076-4.35962 46.2695-4.35962ZM46.2284-0.47709C46.53-0.47709 46.8042-0.547008 47.0509-0.686845 47.2977-0.826682 47.491-1.02547 47.6309-1.28321 47.7707-1.54095 47.8406-1.83433 47.8406-2.16336 47.8406-2.49238 47.7707-2.7844 47.6309-3.03939 47.491-3.29439 47.2977-3.49318 47.0509-3.63576 46.8042-3.77833 46.53-3.84962 46.2284-3.84962 45.9213-3.84962 45.6457-3.77833 45.4017-3.63576 45.1577-3.49318 44.9657-3.29439 44.8259-3.03939 44.6861-2.7844 44.6161-2.49238 44.6161-2.16336 44.6161-1.83433 44.6861-1.54095 44.8259-1.28321 44.9657-1.02547 45.1577-0.826682 45.4017-0.686845 45.6457-0.547008 45.9213-0.47709 46.2284-0.47709ZM51.5175-4.35962C52.0823-4.35962 52.5155-4.21841 52.8172-3.93599 53.1188-3.65358 53.2696-3.23544 53.2696-2.68158L53.2696 0 52.7102 0 52.7102-0.674507C52.5786-0.449671 52.3853-0.27419 52.1303-0.148062 51.8753-0.0219352 51.5723 0.0411285 51.2214 0.0411285 50.7388 0.0411285 50.3549-0.0740312 50.0698-0.304351 49.7846-0.53467 49.642-0.83902 49.642-1.2174 49.642-1.58482 49.775-1.88094 50.041-2.10578 50.3069-2.33061 50.7306-2.44303 51.3119-2.44303L52.6855-2.44303 52.6855-2.70625C52.6855-3.07915 52.5814-3.36294 52.373-3.55761 52.1646-3.75229 51.8602-3.84962 51.4599-3.84962 51.1857-3.84962 50.9225-3.80438 50.6702-3.7139 50.418-3.62342 50.2014-3.49866 50.0204-3.33963L49.7572-3.77559C49.9766-3.96204 50.2398-4.10599 50.5469-4.20744 50.854-4.30889 51.1775-4.35962 51.5175-4.35962ZM51.3119-0.41951C51.6409-0.41951 51.9233-0.494912 52.1591-0.645717 52.3949-0.796521 52.5704-1.0145 52.6855-1.29966L52.6855-2.00707 51.3283-2.00707C50.588-2.00707 50.2178-1.74933 50.2178-1.23385 50.2178-0.981599 50.3138-0.782812 50.5057-0.637491 50.6977-0.49217 50.9664-0.41951 51.3119-0.41951Z" fill="#F6D8CC" fill-rule="nonzero" fill-opacity="1" transform="matrix(1.00332 0 0 1 383.306 118.404)"/></g><g clip-path="url(#clip6)"><path d="M3.87977-16.9871C3.11081-16.9871 2.47292-16.8386 1.9661-16.5415 1.45928-16.2444 1.09228-15.8686 0.865084-15.4142L0.865084-15.4142 1.23209-18.0357 13.6578-18.0357 14.0248-15.4142C13.7977-15.8686 13.4306-16.2444 12.9238-16.5415 12.417-16.8386 11.7791-16.9871 11.0102-16.9871L8.38869-16.9871 8.38869-2.43796C8.38869-1.73891 8.47607-1.20587 8.65084-0.838869 8.8256-0.471864 9.01784-0.227194 9.22756-0.104859 9.43728 0.0174764 9.54214 0.0524293 9.54214 0L5.37401 0C5.37401 0.0524293 5.47886 0.0174764 5.68858-0.104859 5.8983-0.227194 6.08617-0.467495 6.2522-0.825762 6.41822-1.18403 6.50124-1.72143 6.50124-2.43796L6.50124-16.9871 3.87977-16.9871ZM18.2454-8.20519C18.6299-8.65958 19.1018-9.03095 19.661-9.31931 20.2202-9.60767 20.8057-9.75185 21.4174-9.75185 22.3611-9.75185 23.117-9.45039 23.6849-8.84745 24.2529-8.24451 24.5369-7.37506 24.5369-6.23909L24.5369-2.59525C24.5369-1.86124 24.6156-1.30199 24.7729-0.917513 24.9301-0.533031 25.1049-0.270885 25.2971-0.131073 25.4894 0.00873822 25.5855 0.0524293 25.5855 0L21.8106 0C21.8106 0.0524293 21.9067 0.0131073 22.099-0.117966 22.2912-0.249039 22.466-0.506817 22.6233-0.891299 22.7805-1.27578 22.8592-1.8525 22.8592-2.62147L22.8592-5.60994C22.8592-6.20414 22.7805-6.676 22.6233-7.02553 22.466-7.37506 22.2562-7.66342 21.9941-7.89061 21.5921-8.22267 21.1115-8.38869 20.5523-8.38869 19.9231-8.38869 19.3814-8.18334 18.927-7.77265 18.4726-7.36195 18.2454-6.7896 18.2454-6.05559L18.2454-2.62147C18.2454-1.86998 18.324-1.30199 18.4813-0.917513 18.6386-0.533031 18.8178-0.270885 19.0187-0.131073 19.2197 0.00873822 19.3202 0.0524293 19.3202 0L15.5453 0C15.5453 0.0524293 15.6414 0.0131073 15.8337-0.117966 16.0259-0.249039 16.1963-0.511186 16.3448-0.904406 16.4934-1.29763 16.5677-1.86998 16.5677-2.62147L16.5677-16.122C16.5677-16.856 16.4497-17.3585 16.2138-17.6294 15.9778-17.9002 15.7113-18.0357 15.4142-18.0357L15.2569-18.0357 18.2454-19.3988 18.2454-8.20519ZM32.2178 0.314576C31.2741 0.314576 30.4614 0.0830131 29.7799-0.380113 29.0983-0.843238 28.5784-1.44618 28.2201-2.18892 27.8618-2.93167 27.6827-3.72248 27.6827-4.56135 27.6827-5.64489 27.8968-6.57988 28.3249-7.36632 28.7531-8.15276 29.308-8.74696 29.9896-9.14892 30.6712-9.55088 31.379-9.75185 32.113-9.75185 33.1615-9.75185 34.066-9.37174 34.8262-8.61152 35.5864-7.85129 36.0015-6.79834 36.0714-5.45265L29.2556-5.45265C29.2556-4.61378 29.4129-3.8754 29.7274-3.23751 30.042-2.59962 30.4658-2.11028 30.9988-1.76949 31.5319-1.4287 32.113-1.2583 32.7421-1.2583 34.3849-1.2583 35.4947-1.7826 36.0714-2.83118 35.9141-1.88746 35.4859-1.12723 34.7869-0.550508 34.0878 0.0262147 33.2315 0.314576 32.2178 0.314576ZM31.9295-8.88677C31.2479-8.88677 30.6624-8.64647 30.1731-8.16587 29.6837-7.68526 29.3866-7.06048 29.2818-6.29152L34.0528-6.29152C34.0528-7.09544 33.8388-7.72896 33.4106-8.19208 32.9824-8.65521 32.4887-8.88677 31.9295-8.88677ZM65.7988-15.4142C66.0085-16.0434 66.1134-16.5327 66.1134-16.8822 66.1134-17.5988 65.7988-17.9833 65.1696-18.0357L69.2329-18.0357C68.9708-17.9833 68.6344-17.7823 68.2237-17.4328 67.813-17.0832 67.4328-16.4016 67.0833-15.388L61.421 0.629152 56.3615-13.8938 51.1448 0.629152 45.9805-15.4667C45.5261-16.9347 44.862-17.791 43.9882-18.0357L48.3398-18.0357C47.8505-17.9483 47.6058-17.6599 47.6058-17.1706 47.6058-16.9259 47.7107-16.489 47.9204-15.8599L48.2088-14.9424 51.5118-4.01084 56.8334-18.5338 61.8928-4.1157 65.7988-15.4142ZM72.6933 0.314576C71.7495 0.314576 70.9369 0.0830131 70.2553-0.380113 69.5737-0.843238 69.0538-1.44618 68.6955-2.18892 68.3372-2.93167 68.1581-3.72248 68.1581-4.56135 68.1581-5.64489 68.3722-6.57988 68.8004-7.36632 69.2286-8.15276 69.7834-8.74696 70.465-9.14892 71.1466-9.55088 71.8544-9.75185 72.5884-9.75185 73.637-9.75185 74.5414-9.37174 75.3016-8.61152 76.0618-7.85129 76.4769-6.79834 76.5468-5.45265L69.731-5.45265C69.731-4.61378 69.8883-3.8754 70.2029-3.23751 70.5174-2.59962 70.9412-2.11028 71.4743-1.76949 72.0073-1.4287 72.5884-1.2583 73.2176-1.2583 74.8603-1.2583 75.9701-1.7826 76.5468-2.83118 76.3895-1.88746 75.9613-1.12723 75.2623-0.550508 74.5632 0.0262147 73.7069 0.314576 72.6933 0.314576ZM72.4049-8.88677C71.7233-8.88677 71.1379-8.64647 70.6485-8.16587 70.1592-7.68526 69.8621-7.06048 69.7572-6.29152L74.5283-6.29152C74.5283-7.09544 74.3142-7.72896 73.886-8.19208 73.4578-8.65521 72.9641-8.88677 72.4049-8.88677ZM79.6926-16.122C79.6926-16.856 79.5746-17.3585 79.3387-17.6294 79.1027-17.9002 78.8362-18.0357 78.5391-18.0357L78.3818-18.0357 81.3703-19.3988 81.3703-2.62147C81.3703-1.8525 81.449-1.27578 81.6062-0.891299 81.7635-0.506817 81.9383-0.249039 82.1305-0.117966 82.3228 0.0131073 82.4189 0.0524293 82.4189 0L78.644 0C78.644 0.0524293 78.7401 0.0131073 78.9324-0.117966 79.1246-0.249039 79.2994-0.511186 79.4566-0.904406 79.6139-1.29763 79.6926-1.86998 79.6926-2.62147L79.6926-16.122ZM85.5647-16.122C85.5647-16.856 85.4467-17.3585 85.2108-17.6294 84.9748-17.9002 84.7083-18.0357 84.4112-18.0357L84.2539-18.0357 87.2424-19.3988 87.2424-2.62147C87.2424-1.8525 87.321-1.27578 87.4783-0.891299 87.6356-0.506817 87.8104-0.249039 88.0026-0.117966 88.1949 0.0131073 88.291 0.0524293 88.291 0L84.5161 0C84.5161 0.0524293 84.6122 0.0131073 84.8044-0.117966 84.9967-0.249039 85.1714-0.511186 85.3287-0.904406 85.486-1.29763 85.5647-1.86998 85.5647-2.62147L85.5647-16.122ZM93.8223 0.314576C93.298 0.314576 92.7562 0.227194 92.197 0.0524293 91.6377-0.122335 91.1746-0.349529 90.8076-0.629152L90.8076-2.93604C91.1396-2.11465 91.5897-1.52482 92.1576-1.16655 92.7256-0.808285 93.3417-0.629152 94.0058-0.629152 94.5475-0.629152 94.9888-0.777702 95.3296-1.0748 95.6704-1.3719 95.8408-1.69521 95.8408-2.04474 95.8408-2.42923 95.666-2.75254 95.3165-3.01469 94.967-3.27683 94.434-3.57393 93.7174-3.90598 92.7912-4.3429 92.0746-4.77107 91.5678-5.1905 91.061-5.60994 90.8076-6.17792 90.8076-6.89446 90.8076-7.6809 91.1047-8.35374 91.6989-8.91298 92.2931-9.47223 93.0708-9.75185 94.032-9.75185 94.6961-9.75185 95.2728-9.67321 95.7622-9.51592 96.2515-9.35863 96.6185-9.18387 96.8632-8.99163L96.4437-7.02553C96.234-7.61973 95.8845-8.06538 95.3951-8.36248 94.9058-8.65958 94.3903-8.80813 93.8485-8.80813 93.3766-8.80813 92.9878-8.66831 92.6819-8.38869 92.3761-8.10907 92.2232-7.79449 92.2232-7.44496 92.2232-6.9731 92.411-6.59736 92.7868-6.31773 93.1625-6.03811 93.7349-5.73227 94.5039-5.40022 95.4126-5.01574 96.1073-4.62689 96.5879-4.23367 97.0685-3.84045 97.3088-3.28557 97.3088-2.56904 97.3088-2.06222 97.169-1.59036 96.8894-1.15345 96.6098-0.716534 96.2034-0.362636 95.6704-0.0917513 95.1374 0.179134 94.5213 0.314576 93.8223 0.314576ZM102.132 3.46034C102.132 4.2293 102.211 4.80602 102.368 5.1905 102.526 5.57499 102.7 5.83276 102.893 5.96384 103.085 6.09491 103.181 6.13423 103.181 6.0818L99.406 6.0818C99.406 6.13423 99.5021 6.09491 99.6944 5.96384 99.8866 5.83276 100.061 5.57062 100.219 5.1774 100.376 4.78418 100.455 4.21182 100.455 3.46034L100.455-6.57988C100.455-7.31389 100.337-7.81634 100.101-8.08722 99.8648-8.35811 99.5982-8.49355 99.3011-8.49355L102.132-9.75185 102.132-8.0479C102.342-8.39743 102.722-8.7688 103.273-9.16202 103.823-9.55524 104.544-9.75185 105.435-9.75185 106.204-9.75185 106.895-9.55961 107.506-9.17513 108.118-8.79065 108.599-8.25762 108.948-7.57604 109.298-6.89446 109.472-6.13423 109.472-5.29536 109.472-4.2293 109.254-3.28557 108.817-2.46418 108.38-1.64279 107.812-0.987419 107.113-0.498079 106.327 0.0436911 105.47 0.314576 104.544 0.314576 103.932 0.314576 103.426 0.231563 103.024 0.0655367 102.622-0.10049 102.325-0.253408 102.132-0.39322L102.132 3.46034ZM107.585-4.50892C107.585-5.60994 107.327-6.56677 106.812-7.37943 106.296-8.19208 105.549-8.59841 104.57-8.59841 104.203-8.59841 103.828-8.49792 103.443-8.29694 103.059-8.09596 102.744-7.82071 102.499-7.47118 102.255-7.12165 102.132-6.72843 102.132-6.29152L102.132-3.19819C102.132-2.63894 102.198-2.18456 102.329-1.83503 102.46-1.4855 102.665-1.22335 102.945-1.04859 103.382-0.768963 103.915-0.629152 104.544-0.629152 105.418-0.629152 106.143-0.98305 106.72-1.69085 107.297-2.39864 107.585-3.338 107.585-4.50892ZM114.296-7.36632C114.558-7.92557 114.991-8.46297 115.594-8.97852 116.196-9.49408 116.804-9.75185 117.415-9.75185 117.8-9.75185 118.088-9.69942 118.281-9.59457L118.281-7.44496C117.896-7.91683 117.354-8.15276 116.655-8.15276 115.921-8.15276 115.345-7.83381 114.925-7.19592 114.506-6.55803 114.296-5.74101 114.296-4.74485L114.296-2.62147C114.296-1.64279 114.41-0.969943 114.637-0.602937 114.864-0.235932 115.082-0.0349529 115.292 0L111.596 0C111.806-0.0349529 112.028-0.231563 112.264-0.58983 112.5-0.948097 112.618-1.62531 112.618-2.62147L112.618-6.57988C112.618-7.31389 112.5-7.81634 112.264-8.08722 112.028-8.35811 111.762-8.49355 111.465-8.49355L114.296-9.75185 114.296-7.36632ZM121.007-6.57988C121.007-7.31389 120.889-7.81634 120.653-8.08722 120.417-8.35811 120.151-8.49355 119.853-8.49355L122.685-9.75185 122.685-2.62147C122.685-1.8525 122.763-1.27578 122.921-0.891299 123.078-0.506817 123.253-0.249039 123.445-0.117966 123.637 0.0131073 123.733 0.0524293 123.733 0L119.958 0C119.958 0.0524293 120.054 0.0131073 120.247-0.117966 120.439-0.249039 120.614-0.506817 120.771-0.891299 120.928-1.27578 121.007-1.8525 121.007-2.62147L121.007-6.57988ZM121.82-12.9238C121.435-12.9238 121.134-13.0505 120.915-13.3039 120.697-13.5573 120.587-13.8501 120.587-14.1821 120.587-14.5142 120.697-14.8069 120.915-15.0603 121.134-15.3137 121.435-15.4404 121.82-15.4404 122.204-15.4404 122.505-15.3137 122.724-15.0603 122.942-14.8069 123.052-14.5142 123.052-14.1821 123.052-13.8501 122.942-13.5573 122.724-13.3039 122.505-13.0505 122.204-12.9238 121.82-12.9238ZM128.557-7.96926C128.959-8.51103 129.435-8.94357 129.985-9.26688 130.536-9.5902 131.117-9.75185 131.729-9.75185 132.672-9.75185 133.428-9.45039 133.996-8.84745 134.564-8.24451 134.848-7.37506 134.848-6.23909L134.848-2.59525C134.848-1.86124 134.927-1.30199 135.084-0.917513 135.241-0.533031 135.416-0.270885 135.608-0.131073 135.801 0.00873822 135.897 0.0524293 135.897 0L132.122 0C132.122 0.0524293 132.218 0.0131073 132.41-0.117966 132.602-0.249039 132.777-0.506817 132.935-0.891299 133.092-1.27578 133.17-1.8525 133.17-2.62147L133.17-5.60994C133.17-6.20414 133.092-6.676 132.935-7.02553 132.777-7.37506 132.568-7.66342 132.305-7.89061 131.903-8.22267 131.423-8.38869 130.864-8.38869 130.234-8.38869 129.693-8.18334 129.238-7.77265 128.784-7.36195 128.557-6.7896 128.557-6.05559L128.557-2.62147C128.557-1.86998 128.635-1.30199 128.793-0.917513 128.95-0.533031 129.129-0.270885 129.33-0.131073 129.531 0.00873822 129.632 0.0524293 129.632 0L125.857 0C125.857 0.0524293 125.953 0.0131073 126.145-0.117966 126.337-0.249039 126.508-0.511186 126.656-0.904406 126.805-1.29763 126.879-1.86998 126.879-2.62147L126.879-6.57988C126.879-7.31389 126.761-7.81634 126.525-8.08722 126.289-8.35811 126.023-8.49355 125.726-8.49355L128.557-9.75185 128.557-7.96926ZM143.814-9.54214 147.405-9.54214 147.405-8.49355 145.229-8.49355C145.858-7.72459 146.173-6.93815 146.173-6.13423 146.173-5.45265 146.007-4.81913 145.675-4.23367 145.343-3.64821 144.867-3.18071 144.246-2.83118 143.626-2.48165 142.905-2.30689 142.083-2.30689 141.664-2.30689 141.245-2.34184 140.825-2.41175 140.196-2.06222 139.881-1.669 139.881-1.23209 139.881-1.05732 139.925-0.891299 140.013-0.734011 140.1-0.576723 140.231-0.463126 140.406-0.39322 140.65-0.288361 140.965-0.214086 141.349-0.170395 141.734-0.126704 142.136-0.0961204 142.555-0.078644 142.975-0.0611675 143.272-0.0524293 143.447-0.0524293 144.81 3.90629e-10 145.78 0.262147 146.356 0.734011 146.933 1.20587 147.222 1.77386 147.222 2.43796 147.222 3.13702 146.999 3.77928 146.553 4.36474 146.107 4.9502 145.465 5.41333 144.626 5.75412 143.787 6.09491 142.817 6.2653 141.716 6.2653 140.913 6.2653 140.213 6.15171 139.619 5.92451 139.025 5.69732 138.571 5.40022 138.256 5.03322 137.942 4.66621 137.784 4.27299 137.784 3.85356 137.784 3.29431 138.025 2.77438 138.505 2.29378 138.986 1.81318 139.584 1.45054 140.301 1.20587 139.724 1.17092 139.265 0.978681 138.925 0.629152 138.584 0.279623 138.413-0.0961204 138.413-0.498079 138.413-0.93499 138.562-1.3151 138.859-1.63842 139.156-1.96173 139.584-2.30689 140.144-2.6739 139.514-2.95352 139.034-3.39043 138.702-3.98463 138.37-4.57883 138.204-5.20798 138.204-5.87208 138.204-6.51871 138.365-7.13913 138.689-7.73333 139.012-8.32752 139.493-8.8125 140.13-9.18824 140.768-9.56398 141.524-9.75185 142.398-9.75185 142.852-9.75185 143.324-9.68195 143.814-9.54214ZM142.11-8.80813C141.463-8.80813 140.93-8.57656 140.511-8.11344 140.091-7.65031 139.881-7.06048 139.881-6.34395 139.881-5.45265 140.113-4.72301 140.576-4.15502 141.039-3.58704 141.603-3.30305 142.267-3.30305 142.966-3.30305 143.512-3.53461 143.905-3.99774 144.299-4.46086 144.495-5.07691 144.495-5.84587 144.495-6.71969 144.264-7.43186 143.801-7.98236 143.337-8.53287 142.774-8.80813 142.11-8.80813ZM142.215 1.52045 141.664 1.52045C141.017 1.52045 140.489 1.72143 140.078 2.12339 139.667 2.52535 139.462 2.97099 139.462 3.46034 139.462 3.9322 139.729 4.33853 140.262 4.67932 140.795 5.02011 141.507 5.1905 142.398 5.1905 143.464 5.1905 144.29 4.98952 144.875 4.58757 145.461 4.18561 145.754 3.68753 145.754 3.09333 145.754 2.56904 145.474 2.17582 144.915 1.91367 144.355 1.65152 143.455 1.52045 142.215 1.52045Z" fill="#F6D8CC" fill-rule="nonzero" fill-opacity="1" transform="matrix(1.00314 0 0 1 336.132 100.169)"/></g></g></g></g></g></svg>